<?xml version="1.0" encoding="utf-8"?>
<svg width="190mm" height="190mm" viewBox="-12.0 -12.0 30.0 24.0" xmlns="http://www.w3.org/2000/svg">
 <polygon points="0.0,-12.0 3.0,-6.0 -3.0,-6.0" fill="none" stroke="black" stroke-width="0.1" />
 <text x="0.0" y="-8.0" font-size="2" text-anchor="middle" dominant-baseline="central">0,0</text>
 <polygon points="0.0,-0.0 -3.0,-6.0 3.0,-6.0" fill="none" stroke="black" stroke-width="0.1" />
 <text x="0.0" y="-4.0" font-size="2" text-anchor="middle" dominant-baseline="central">0,1</text>
 <polygon points="-3.0,-6.0 -6.0,-12.0 0.0,-12.0" fill="none" stroke="black" stroke-width="0.1" />
 <text x="-3.0" y="-10.0" font-size="2" text-anchor="middle" dominant-baseline="central">0,2</text>
 <polygon points="3.0,-6.0 0.0,-12.0 6.0,-12.0" fill="none" stroke="black" stroke-width="0.1" />
 <text x="3.0" y="-10.0" font-size="2" text-anchor="middle" dominant-baseline="central">0,3</text>
 <polygon points="0.0,-0.0 -6.0,-12.0 6.0,-12.0" fill="none" stroke="black" stroke-width="0.2" />
 <polygon points="6.0,-0.0 3.0,-6.0 9.0,-6.0" fill="none" stroke="black" stroke-width="0.1" />
 <text x="6.0" y="-4.0" font-size="2" text-anchor="middle" dominant-baseline="central">1,0</text>
 <polygon points="6.0,-12.0 9.0,-6.0 3.0,-6.0" fill="none" stroke="black" stroke-width="0.1" />
 <text x="6.0" y="-8.0" font-size="2" text-anchor="middle" dominant-baseline="central">1,1</text>
 <polygon points="9.0,-6.0 12.0,-0.0 6.0,-0.0" fill="none" stroke="black" stroke-width="0.1" />
 <text x="9.0" y="-2.0" font-size="2" text-anchor="middle" dominant-baseline="central">1,2</text>
 <polygon points="3.0,-6.0 6.0,-0.0 0.0,-0.0" fill="none" stroke="black" stroke-width="0.1" />
 <text x="3.0" y="-2.0" font-size="2" text-anchor="middle" dominant-baseline="central">1,3</text>
 <polygon points="6.0,-12.0 12.0,-0.0 0.0,-0.0" fill="none" stroke="black" stroke-width="0.2" />
 <polygon points="12.0,-12.0 15.0,-6.0 9.0,-6.0" fill="none" stroke="black" stroke-width="0.1" />
 <text x="12.0" y="-8.0" font-size="2" text-anchor="middle" dominant-baseline="central">2,0</text>
 <polygon points="12.0,-0.0 9.0,-6.0 15.0,-6.0" fill="none" stroke="black" stroke-width="0.1" />
 <text x="12.0" y="-4.0" font-size="2" text-anchor="middle" dominant-baseline="central">2,1</text>
 <polygon points="9.0,-6.0 6.0,-12.0 12.0,-12.0" fill="none" stroke="black" stroke-width="0.1" />
 <text x="9.0" y="-10.0" font-size="2" text-anchor="middle" dominant-baseline="central">2,2</text>
 <polygon points="-9.0,-6.0 -12.0,-12.0 -6.0,-12.0" fill="none" stroke="black" stroke-width="0.1" />
 <text x="-9.0" y="-10.0" font-size="2" text-anchor="middle" dominant-baseline="central">2,3</text>
 <polygon points="12.0,-0.0 6.0,-12.0 18.0,-12.0" fill="none" stroke="black" stroke-width="0.2" />
 <polygon points="-6.0,-0.0 -9.0,-6.0 -3.0,-6.0" fill="none" stroke="black" stroke-width="0.1" />
 <text x="-6.0" y="-4.0" font-size="2" text-anchor="middle" dominant-baseline="central">3,0</text>
 <polygon points="-6.0,-12.0 -3.0,-6.0 -9.0,-6.0" fill="none" stroke="black" stroke-width="0.1" />
 <text x="-6.0" y="-8.0" font-size="2" text-anchor="middle" dominant-baseline="central">3,1</text>
 <polygon points="-3.0,-6.0 0.0,-0.0 -6.0,-0.0" fill="none" stroke="black" stroke-width="0.1" />
 <text x="-3.0" y="-2.0" font-size="2" text-anchor="middle" dominant-baseline="central">3,2</text>
 <polygon points="-9.0,-6.0 -6.0,-0.0 -12.0,-0.0" fill="none" stroke="black" stroke-width="0.1" />
 <text x="-9.0" y="-2.0" font-size="2" text-anchor="middle" dominant-baseline="central">3,3</text>
 <polygon points="-6.0,-12.0 0.0,-0.0 -12.0,-0.0" fill="none" stroke="black" stroke-width="0.2" />
 <polygon points="0.0,12.0 -3.0,6.0 3.0,6.0" fill="none" stroke="black" stroke-width="0.1" />
 <text x="0.0" y="8.0" font-size="2" text-anchor="middle" dominant-baseline="central">4,0</text>
 <polygon points="0.0,-0.0 3.0,6.0 -3.0,6.0" fill="none" stroke="black" stroke-width="0.1" />
 <text x="0.0" y="4.0" font-size="2" text-anchor="middle" dominant-baseline="central">4,1</text>
 <polygon points="3.0,6.0 6.0,12.0 0.0,12.0" fill="none" stroke="black" stroke-width="0.1" />
 <text x="3.0" y="10.0" font-size="2" text-anchor="middle" dominant-baseline="central">4,2</text>
 <polygon points="-3.0,6.0 0.0,12.0 -6.0,12.0" fill="none" stroke="black" stroke-width="0.1" />
 <text x="-3.0" y="10.0" font-size="2" text-anchor="middle" dominant-baseline="central">4,3</text>
 <polygon points="0.0,-0.0 6.0,12.0 -6.0,12.0" fill="none" stroke="black" stroke-width="0.2" />
 <polygon points="6.0,-0.0 9.0,6.0 3.0,6.0" fill="none" stroke="black" stroke-width="0.1" />
 <text x="6.0" y="4.0" font-size="2" text-anchor="middle" dominant-baseline="central">5,0</text>
 <polygon points="6.0,12.0 3.0,6.0 9.0,6.0" fill="none" stroke="black" stroke-width="0.1" />
 <text x="6.0" y="8.0" font-size="2" text-anchor="middle" dominant-baseline="central">5,1</text>
 <polygon points="3.0,6.0 0.0,-0.0 6.0,-0.0" fill="none" stroke="black" stroke-width="0.1" />
 <text x="3.0" y="2.0" font-size="2" text-anchor="middle" dominant-baseline="central">5,2</text>
 <polygon points="9.0,6.0 6.0,-0.0 12.0,-0.0" fill="none" stroke="black" stroke-width="0.1" />
 <text x="9.0" y="2.0" font-size="2" text-anchor="middle" dominant-baseline="central">5,3</text>
 <polygon points="6.0,12.0 0.0,-0.0 12.0,-0.0" fill="none" stroke="black" stroke-width="0.2" />
 <polygon points="12.0,12.0 9.0,6.0 15.0,6.0" fill="none" stroke="black" stroke-width="0.1" />
 <text x="12.0" y="8.0" font-size="2" text-anchor="middle" dominant-baseline="central">6,0</text>
 <polygon points="12.0,-0.0 15.0,6.0 9.0,6.0" fill="none" stroke="black" stroke-width="0.1" />
 <text x="12.0" y="4.0" font-size="2" text-anchor="middle" dominant-baseline="central">6,1</text>
 <polygon points="-9.0,6.0 -6.0,12.0 -12.0,12.0" fill="none" stroke="black" stroke-width="0.1" />
 <text x="-9.0" y="10.0" font-size="2" text-anchor="middle" dominant-baseline="central">6,2</text>
 <polygon points="9.0,6.0 12.0,12.0 6.0,12.0" fill="none" stroke="black" stroke-width="0.1" />
 <text x="9.0" y="10.0" font-size="2" text-anchor="middle" dominant-baseline="central">6,3</text>
 <polygon points="12.0,-0.0 18.0,12.0 6.0,12.0" fill="none" stroke="black" stroke-width="0.2" />
 <polygon points="-6.0,-0.0 -3.0,6.0 -9.0,6.0" fill="none" stroke="black" stroke-width="0.1" />
 <text x="-6.0" y="4.0" font-size="2" text-anchor="middle" dominant-baseline="central">7,0</text>
 <polygon points="-6.0,12.0 -9.0,6.0 -3.0,6.0" fill="none" stroke="black" stroke-width="0.1" />
 <text x="-6.0" y="8.0" font-size="2" text-anchor="middle" dominant-baseline="central">7,1</text>
 <polygon points="-9.0,6.0 -12.0,-0.0 -6.0,-0.0" fill="none" stroke="black" stroke-width="0.1" />
 <text x="-9.0" y="2.0" font-size="2" text-anchor="middle" dominant-baseline="central">7,2</text>
 <polygon points="-3.0,6.0 -6.0,-0.0 0.0,-0.0" fill="none" stroke="black" stroke-width="0.1" />
 <text x="-3.0" y="2.0" font-size="2" text-anchor="middle" dominant-baseline="central">7,3</text>
 <polygon points="-6.0,12.0 -12.0,-0.0 0.0,-0.0" fill="none" stroke="black" stroke-width="0.2" />
</svg>
